<svg xmlns="http://www.w3.org/2000/svg" width="1280" height="640" viewBox="0 0 1280 640">
<defs><linearGradient id="bg" x1="0" y1="0" x2="1" y2="1"><stop offset="0" stop-color="#0D2140"/><stop offset="1" stop-color="#081627"/></linearGradient></defs>
<rect width="1280" height="640" fill="url(#bg)"/>
<g opacity="0.055" stroke="#67E4FF" stroke-width="1"><line x1="40" y1="0" x2="40" y2="640"/><line x1="80" y1="0" x2="80" y2="640"/><line x1="120" y1="0" x2="120" y2="640"/><line x1="160" y1="0" x2="160" y2="640"/><line x1="200" y1="0" x2="200" y2="640"/><line x1="240" y1="0" x2="240" y2="640"/><line x1="280" y1="0" x2="280" y2="640"/><line x1="320" y1="0" x2="320" y2="640"/><line x1="360" y1="0" x2="360" y2="640"/><line x1="400" y1="0" x2="400" y2="640"/><line x1="440" y1="0" x2="440" y2="640"/><line x1="480" y1="0" x2="480" y2="640"/><line x1="520" y1="0" x2="520" y2="640"/><line x1="560" y1="0" x2="560" y2="640"/><line x1="600" y1="0" x2="600" y2="640"/><line x1="640" y1="0" x2="640" y2="640"/><line x1="680" y1="0" x2="680" y2="640"/><line x1="720" y1="0" x2="720" y2="640"/><line x1="760" y1="0" x2="760" y2="640"/><line x1="800" y1="0" x2="800" y2="640"/><line x1="840" y1="0" x2="840" y2="640"/><line x1="880" y1="0" x2="880" y2="640"/><line x1="920" y1="0" x2="920" y2="640"/><line x1="960" y1="0" x2="960" y2="640"/><line x1="1000" y1="0" x2="1000" y2="640"/><line x1="1040" y1="0" x2="1040" y2="640"/><line x1="1080" y1="0" x2="1080" y2="640"/><line x1="1120" y1="0" x2="1120" y2="640"/><line x1="1160" y1="0" x2="1160" y2="640"/><line x1="1200" y1="0" x2="1200" y2="640"/><line x1="1240" y1="0" x2="1240" y2="640"/><line x1="0" y1="40" x2="1280" y2="40"/><line x1="0" y1="80" x2="1280" y2="80"/><line x1="0" y1="120" x2="1280" y2="120"/><line x1="0" y1="160" x2="1280" y2="160"/><line x1="0" y1="200" x2="1280" y2="200"/><line x1="0" y1="240" x2="1280" y2="240"/><line x1="0" y1="280" x2="1280" y2="280"/><line x1="0" y1="320" x2="1280" y2="320"/><line x1="0" y1="360" x2="1280" y2="360"/><line x1="0" y1="400" x2="1280" y2="400"/><line x1="0" y1="440" x2="1280" y2="440"/><line x1="0" y1="480" x2="1280" y2="480"/><line x1="0" y1="520" x2="1280" y2="520"/><line x1="0" y1="560" x2="1280" y2="560"/><line x1="0" y1="600" x2="1280" y2="600"/></g><path d="M 554 128 h 12 M 560 122 v 12" stroke="#67E4FF" stroke-width="1.5" opacity="0.16"/><path d="M 1106 200 h 12 M 1112 194 v 12" stroke="#67E4FF" stroke-width="1.5" opacity="0.16"/><path d="M 602 536 h 12 M 608 530 v 12" stroke="#67E4FF" stroke-width="1.5" opacity="0.16"/><path d="M 1162 480 h 12 M 1168 474 v 12" stroke="#67E4FF" stroke-width="1.5" opacity="0.16"/><path d="M 194 560 h 12 M 200 554 v 12" stroke="#67E4FF" stroke-width="1.5" opacity="0.16"/><path d="M 1034 96 h 12 M 1040 90 v 12" stroke="#67E4FF" stroke-width="1.5" opacity="0.16"/>
<g transform="translate(80 160)"><path d="M 10 10 h 300 v 300 h -300 Z" fill="none" stroke="#BFF1FF" stroke-width="3.5" opacity="0.95" stroke-linejoin="round"/><rect x="24" y="24" width="272" height="44" rx="6" fill="#35D0FF" opacity="0.88"/><path d="M 24 24 h 272 v 44 h -272 Z" fill="none" stroke="#BFF1FF" stroke-width="3" opacity="0.95" stroke-linejoin="round"/><g><circle cx="44" cy="46" r="4.5" fill="#081627" opacity="0.85"/><circle cx="62" cy="46" r="4.5" fill="#081627" opacity="0.85"/><circle cx="80" cy="46" r="4.5" fill="#081627" opacity="0.85"/><rect x="100" y="41" width="84" height="10" rx="5" fill="#081627" opacity="0.5"/></g><rect x="24" y="84" width="64" height="212" rx="6" fill="#35D0FF" opacity="0.26"/><path d="M 24 84 h 64 v 212 h -64 Z" fill="none" stroke="#BFF1FF" stroke-width="3" opacity="0.95" stroke-linejoin="round"/><g><rect x="36" y="102" width="40" height="10" rx="4" fill="#BFF1FF" opacity="0.9"/><rect x="36" y="130" width="32" height="10" rx="4" fill="#BFF1FF" opacity="0.45"/><rect x="36" y="158" width="32" height="10" rx="4" fill="#BFF1FF" opacity="0.45"/><rect x="36" y="186" width="32" height="10" rx="4" fill="#BFF1FF" opacity="0.45"/></g><rect x="104" y="84" width="90" height="96" rx="6" fill="#FFFFFF" opacity="0.12"/><path d="M 104 84 h 90 v 96 h -90 Z" fill="none" stroke="#BFF1FF" stroke-width="3" opacity="0.95" stroke-linejoin="round"/><g><rect x="122" y="134" width="12" height="30" rx="3" fill="#BFF1FF" opacity="0.85"/><rect x="142" y="116" width="12" height="48" rx="3" fill="#BFF1FF" opacity="0.85"/><rect x="162" y="126" width="12" height="38" rx="3" fill="#BFF1FF" opacity="0.85"/></g><rect x="206" y="84" width="90" height="96" rx="6" fill="#FFFFFF" opacity="0.12"/><path d="M 206 84 h 90 v 96 h -90 Z" fill="none" stroke="#BFF1FF" stroke-width="3" opacity="0.95" stroke-linejoin="round"/><g><circle cx="251" cy="126" r="21" fill="none" stroke="#BFF1FF" stroke-width="8" opacity="0.25"/><circle cx="251" cy="126" r="21" fill="none" stroke="#BFF1FF" stroke-width="8" stroke-dasharray="95 131.95" stroke-linecap="round" transform="rotate(-90 251 126)"/><rect x="232" y="158" width="38" height="8" rx="4" fill="#BFF1FF" opacity="0.5"/></g><rect x="104" y="196" width="192" height="100" rx="6" fill="#FFFFFF" opacity="0.1"/><path d="M 104 196 h 192 v 100 h -192 Z" fill="none" stroke="#BFF1FF" stroke-width="3" opacity="0.95" stroke-linejoin="round"/><g><rect x="118" y="212" width="164" height="12" rx="5" fill="#FFFFFF" opacity="0.35"/><rect x="118" y="236" width="110" height="12" rx="5" fill="#FFFFFF" opacity="0.28"/><rect x="118" y="260" width="140" height="12" rx="5" fill="#FFFFFF" opacity="0.18"/></g></g>

  <text x="464" y="312" font-family="Menlo, DejaVu Sans Mono, Consolas, monospace" font-weight="bold" font-size="44" fill="#EAF7FF">modern-frontend-architecture</text>
  <text x="464" y="358" font-family="Menlo, DejaVu Sans Mono, Consolas, monospace" font-size="22" fill="#8FB8D9">Architect your frontend like a 10x engineer.</text>
<rect x="0.75" y="0.75" width="1278.5" height="638.5" fill="none" stroke="#35D0FF" stroke-width="1.5" opacity="0.22"/>
</svg>